<svg width="106" height="98" viewBox="0 0 106 98" fill="none" xmlns="http://www.w3.org/2000/svg">
<g clip-path="url(#clip0_240_6445)">
<path d="M66.8964 33.661C66.8978 33.698 66.8978 33.7321 66.8964 33.7691C66.8893 34.93 66.8651 36.1236 66.831 37.3229C66.8111 38.0029 66.7854 38.6844 66.7598 39.3644C66.7044 40.8212 66.6361 42.2638 66.5607 43.6452C66.4725 45.2513 66.38 46.7778 66.2833 48.1408C66.1865 49.5862 66.0883 50.8538 66.0115 51.8496C65.8849 53.4288 65.0313 54.8528 63.6983 55.7135C59.823 58.2203 53.8962 61.1353 50.9556 62.5352C49.7819 63.0943 48.4375 63.1882 47.2012 62.7799C42.2518 61.1395 35.7986 57.9969 32.2092 56.1688C30.5291 55.3166 29.4593 53.6009 29.4393 51.7173C29.4294 50.7158 29.4251 49.7185 29.4265 48.7269C29.4336 46.9642 29.4578 45.2328 29.4948 43.5826C29.5062 43.0149 29.519 42.4544 29.5347 41.9124C29.5617 40.9307 29.5916 39.9932 29.6243 39.1055C29.6342 38.8537 29.6428 38.6047 29.6513 38.36C29.6655 38.0243 29.6769 37.6985 29.6897 37.3812C29.7267 36.4764 29.7651 35.6456 29.8007 34.9086C29.822 34.4818 29.842 34.0863 29.8604 33.7264C29.8661 33.6467 29.869 33.5713 29.8732 33.4945C29.9543 31.9922 30.6941 30.6008 31.9005 29.7017C35.884 26.7284 42.3755 23.5815 45.5865 22.1019C46.8171 21.5371 48.2241 21.4802 49.4931 21.9596C56.3161 24.546 61.6198 27.5421 64.4936 29.319C65.8565 30.1627 66.7328 31.5924 66.8751 33.1687C66.8893 33.3323 66.8978 33.4974 66.8964 33.661Z" fill="#DD7B4A"/>
<path d="M67.1582 37.6871C67.1539 38.1324 67.1525 38.6175 67.1482 39.1382C67.1397 39.6589 67.1098 40.2165 67.0856 40.8112L67.0002 42.6564C66.9732 43.271 66.9419 43.8884 66.8992 44.503L66.6702 48.1919L66.3956 51.8795C66.2918 53.2025 65.6843 54.4744 64.724 55.3863C64.4836 55.6125 64.2261 55.8231 63.9486 56.0023L63.1605 56.5017L62.3652 56.984L61.5629 57.4534C60.4916 58.0723 59.4104 58.667 58.3178 59.2446C56.1354 60.3998 53.9275 61.4995 51.7024 62.5636C51.4179 62.6959 51.159 62.8282 50.8474 62.9605C50.5444 63.0871 50.23 63.1839 49.9085 63.2522C49.2654 63.3873 48.5982 63.4058 47.9495 63.302C47.6294 63.2522 47.3007 63.1654 47.002 63.063L46.1242 62.7571C45.5423 62.5451 44.9619 62.3274 44.3871 62.1012C42.0853 61.1936 39.829 60.1892 37.5982 59.135C36.4815 58.6072 35.3732 58.068 34.2692 57.5189L32.6175 56.6866C32.3429 56.5458 32.0726 56.4121 31.7838 56.247C31.5093 56.0763 31.239 55.8914 30.9985 55.6723C30.5077 55.2497 30.108 54.7248 29.7992 54.1571C29.5048 53.581 29.297 52.9564 29.2273 52.3105C29.1832 51.989 29.1889 51.6618 29.1875 51.3602V50.4341L29.1918 48.5846C29.2458 43.6523 29.4165 38.7228 29.684 33.8004C29.6982 33.4988 29.7196 33.173 29.7765 32.8614C29.8305 32.5484 29.9187 32.2411 30.0311 31.9438C30.2531 31.3477 30.5888 30.7957 31.0071 30.3206C31.2148 30.0801 31.4509 29.8639 31.6985 29.669C31.9489 29.4755 32.2007 29.3048 32.4539 29.1227C32.9618 28.7713 33.474 28.427 33.9975 28.0998C36.0831 26.781 38.2512 25.603 40.4464 24.4877C41.5433 23.93 42.6501 23.388 43.7626 22.863C44.3174 22.5984 44.8765 22.3409 45.4356 22.0862C45.9976 21.8188 46.6079 21.6424 47.2296 21.5897C47.8527 21.5342 48.483 21.5911 49.0833 21.7604C49.3864 21.8415 49.6709 21.9653 49.9554 22.0763L50.8133 22.4134C51.9542 22.8758 53.0867 23.3552 54.2077 23.8603C56.4484 24.8718 58.6507 25.9687 60.8032 27.158C61.8787 27.7512 62.9428 28.3658 63.9899 29.0074C64.2503 29.1696 64.5149 29.3247 64.7667 29.5025C65.0171 29.6804 65.249 29.8838 65.4624 30.1043C65.8877 30.5453 66.2363 31.0646 66.4753 31.6308C66.7499 32.2739 66.8139 32.8045 66.8267 33.1488C66.8253 33.4973 66.8025 33.6681 66.7755 33.6681C66.747 33.6681 66.7143 33.4973 66.6745 33.163C66.619 32.833 66.5279 32.3322 66.2633 31.7205C66.0328 31.1827 65.6985 30.6919 65.2916 30.2736C65.0854 30.0659 64.8648 29.8724 64.6258 29.706C64.3897 29.5424 64.1222 29.3859 63.8619 29.2251C62.8148 28.5949 61.7521 27.9874 60.6765 27.4013C58.5269 26.229 56.3261 25.1506 54.0897 24.1562C52.9686 23.6597 51.839 23.1888 50.6995 22.735L49.8416 22.4035L49.412 22.2385C49.274 22.1872 49.1374 22.1403 48.998 22.1019C48.4374 21.9482 47.8527 21.8942 47.2751 21.9482C46.6933 22.0009 46.1356 22.1631 45.6035 22.4177C45.0473 22.6766 44.491 22.9384 43.939 23.2059C42.8336 23.7365 41.7325 24.2842 40.6427 24.8462C38.4632 25.9715 36.3093 27.1594 34.2493 28.4796C33.7329 28.8097 33.2278 29.1511 32.7285 29.504C32.4852 29.6832 32.2249 29.8625 31.9958 30.0417C31.7696 30.2196 31.5591 30.4173 31.3699 30.635C30.9914 31.0689 30.6898 31.5711 30.4907 32.1131C30.3911 32.3834 30.3114 32.6622 30.2644 32.9454C30.2147 33.2327 30.1976 33.5045 30.1834 33.826C29.95 38.7427 29.8078 43.6722 29.7807 48.5988L29.7864 50.4469L29.7907 51.3702C29.7936 51.521 29.7864 51.686 29.7978 51.824L29.8078 52.0388L29.832 52.2522C29.8974 52.8213 30.0866 53.3718 30.3498 53.8783C30.6272 54.3791 30.9829 54.8372 31.4196 55.2071C31.633 55.3977 31.872 55.557 32.1153 55.705C32.3558 55.8444 32.6431 55.9824 32.9149 56.1204L34.5666 56.9427C35.6705 57.4862 36.7788 58.0168 37.8927 58.5361C40.122 59.5746 42.3712 60.5676 44.6574 61.4539C45.2294 61.6759 45.8027 61.8879 46.3774 62.0956L47.2438 62.3929C47.5227 62.4868 47.793 62.5537 48.0761 62.5963C48.638 62.6803 49.2156 62.6589 49.7705 62.5352C50.0493 62.474 50.3196 62.3872 50.5814 62.2762L50.7763 62.1895L51.3994 61.8907C53.6145 60.8237 55.8096 59.7211 57.9763 58.5674C59.0576 57.9884 60.1317 57.3965 61.1915 56.7819C61.7208 56.4746 62.2443 56.1588 62.7636 55.8401C63.0182 55.6765 63.2843 55.5144 63.5304 55.3507C63.768 55.1971 63.9871 55.0136 64.1933 54.8187C65.0128 54.0305 65.5292 52.9394 65.6103 51.8041L65.8835 48.1308C65.9589 46.9059 66.0357 45.681 66.1111 44.4575C66.1509 43.8457 66.1822 43.2326 66.2107 42.6194L66.2975 40.7828C66.3259 40.1881 66.3544 39.6318 66.38 39.114C66.4013 38.5947 66.4226 38.1124 66.4397 37.6671C66.4824 36.7766 66.5322 36.0339 66.582 35.4421C66.6844 34.2556 66.7982 33.6652 66.8921 33.6681C66.9917 33.6695 67.0714 34.2684 67.1155 35.4606C67.1482 36.0482 67.1596 36.7936 67.1582 37.6871Z" fill="#56091F"/>
<path d="M95.8102 55.1032C95.8102 56.55 95.8003 57.8205 95.7889 58.8192C95.7704 60.4026 95.0149 61.8836 93.7445 62.8296C90.047 65.5939 84.3308 68.903 81.494 70.5006C80.3602 71.1379 79.0272 71.3229 77.7638 70.9985C72.7134 69.6982 66.0639 67.0023 62.3579 65.4231C60.6251 64.6862 59.44 63.0487 59.2921 61.168C59.2138 60.1707 59.1427 59.1748 59.0787 58.1861C58.9649 56.4277 58.871 54.6963 58.7956 53.0475C58.7216 51.4598 58.6647 49.9546 58.622 48.5732C58.5694 46.9813 58.5367 45.5572 58.5153 44.3735C58.5068 43.9467 58.4982 43.5498 58.494 43.1899C58.494 43.1102 58.4926 43.0334 58.4897 42.958C58.4698 41.4543 59.1128 40.0145 60.2581 39.0343C64.0295 35.7978 70.2935 32.2184 73.3991 30.5254C74.587 29.8781 75.9884 29.7259 77.2858 30.1185C84.2696 32.2354 89.7625 34.8645 92.7501 36.4437C94.167 37.192 95.1401 38.5606 95.3877 40.1226C95.4147 40.2834 95.4318 40.447 95.4432 40.6135C95.4446 40.6505 95.4489 40.6846 95.4489 40.7216C95.5627 42.5369 95.6395 44.4347 95.6907 46.3112C95.7348 47.7666 95.7633 49.2134 95.7818 50.5977C95.8045 52.2067 95.8145 53.736 95.8102 55.1032Z" fill="#F9AABB"/>
<mask id="mask0_240_6445" style="mask-type:luminance" maskUnits="userSpaceOnUse" x="9" y="40" width="36" height="40">
<path d="M9.68115 40.0771H44.4323V79.4107H9.68115V40.0771Z" fill="white"/>
</mask>
<g mask="url(#mask0_240_6445)">
<path d="M44.1183 53.056C44.1169 53.093 44.1169 53.1271 44.1126 53.1641C44.0956 53.534 44.0785 53.9082 44.0571 54.2866C44.013 55.1615 43.9576 56.0521 43.8964 56.9427C43.8537 57.5445 43.8096 58.1477 43.7627 58.748C43.72 59.2915 43.6773 59.8321 43.6332 60.3699C43.5962 60.8009 43.5592 61.2263 43.5222 61.6502C43.4824 62.1112 43.4411 62.5693 43.3985 63.0188C43.333 63.7273 43.2661 64.4216 43.1993 65.0916C43.1153 65.9353 43.03 66.7433 42.9489 67.5002C42.8493 68.4406 42.7526 69.3041 42.6672 70.0667C42.6203 70.4735 42.5747 70.8506 42.5349 71.1948C42.3813 72.4724 41.7553 73.6304 40.7936 74.4541H40.7922C40.5702 74.6462 40.3312 74.8169 40.0751 74.9677C38.8374 75.7018 37.3977 76.47 35.9124 77.2141C34.8326 77.7561 33.7301 78.2868 32.6631 78.7875C32.5692 78.8316 32.4753 78.8772 32.3828 78.9198C31.939 79.1247 31.4268 79.119 30.9915 78.8971L30.7183 78.7605L11.6021 69.1078L10.353 68.4776C9.97033 68.2841 9.74128 67.8786 9.77116 67.4504L10.9733 50.5336C11.0259 49.7696 11.2009 49.027 11.4755 48.3328C11.7287 47.6869 12.0702 47.0823 12.4927 46.536C12.5781 46.4221 12.6691 46.3098 12.763 46.2016C12.9181 46.0252 13.0831 45.8531 13.2538 45.6895C13.7617 45.2072 14.345 44.7918 14.988 44.466C15.3238 44.2953 15.661 44.126 15.9967 43.9609C16.8972 43.5157 17.7949 43.0917 18.6528 42.6991C18.9786 42.5483 19.3001 42.4046 19.6131 42.2623C19.7952 42.1798 19.9773 42.1015 20.1537 42.0219C21.3487 41.4898 22.4214 41.036 23.2693 40.6846C24.5184 40.1682 25.9297 40.1639 27.1773 40.6931C27.2371 40.7173 27.2954 40.7429 27.3552 40.7685C28.8134 41.3902 30.1976 42.0276 31.5022 42.6649C31.6587 42.7417 31.8152 42.8171 31.9688 42.8925C32.8352 43.3222 33.6632 43.7518 34.45 44.1729C34.6235 44.264 34.7914 44.3564 34.9593 44.4475C37.1843 45.6525 39.0665 46.792 40.5389 47.7395C40.8732 47.9558 41.1876 48.162 41.4793 48.3527C41.6187 48.4466 41.7539 48.5362 41.8833 48.623C42.1821 48.8222 42.4552 49.0526 42.6971 49.3073C42.7725 49.3841 42.8436 49.4638 42.9119 49.5449C42.9276 49.5591 42.9389 49.5762 42.9517 49.5904C43.2149 49.9034 43.4354 50.2477 43.6147 50.6119C43.9078 51.2165 44.0799 51.878 44.114 52.5637C44.124 52.7245 44.1269 52.8895 44.1183 53.056Z" fill="#56091F"/>
</g>
<path d="M31.1564 60.9517L31.1308 61.9106L31.0995 63.2635L31.091 63.6021L31.0056 67.1019L30.9672 68.6483L30.9359 69.9159L30.9245 70.4266L30.842 73.7158L30.7183 78.7605L11.6021 69.1078L11.8482 65.1073L12.0431 61.922L12.0616 61.6417L12.0957 61.0798L12.2479 58.5773L12.4585 55.1871L12.4628 55.1089L12.5154 54.2425L12.6904 51.4071C12.7302 50.7484 13.4259 50.3373 14.0234 50.6218L29.26 57.8688C30.4465 58.4322 31.1877 59.6386 31.1564 60.9517ZM75.7851 38.9077C80.1754 38.3543 84.5444 37.6785 88.9248 37.081C89.4455 37.0099 89.3985 36.2231 88.8636 36.2587C84.395 36.556 79.9578 36.7751 75.5063 37.31C73.3225 37.5732 71.1402 37.862 68.9635 38.1921C67.9691 38.3429 66.9746 38.5036 65.983 38.6673C64.9089 38.8451 64.044 38.9575 63.2217 39.6859C63.0723 39.8153 63.1349 40.1041 63.3084 40.1795C64.1905 40.5622 64.9089 40.4726 65.8507 40.3246C66.9732 40.1468 68.0957 39.9661 69.221 39.7997C71.4062 39.4796 73.5942 39.1851 75.7851 38.9077ZM73.1475 34.3395C74.2046 34.1944 75.2602 34.0394 76.3172 33.9113C77.286 33.7932 78.1538 33.5357 79.0956 33.3536C80.137 33.1545 81.1983 33.0606 82.2525 32.9681C82.5527 32.9411 82.5314 32.5015 82.2298 32.5015C80.1754 32.4929 78.1055 32.271 76.0697 32.4716C75.0709 32.5683 74.0751 32.6765 73.0821 32.823C72.2811 32.9411 71.3166 32.9212 70.8997 33.7164C70.8286 33.8501 70.8613 34.0152 70.9694 34.119C71.5698 34.6995 72.3949 34.4434 73.1475 34.3395ZM91.928 53.3106C91.7886 50.8864 91.5567 48.4324 91.1014 46.0451C90.676 43.8244 88.8622 42.103 86.5731 41.9579C85.0096 41.8583 83.3693 42.0944 81.8086 42.2154C80.1456 42.3405 78.4839 42.5198 76.8237 42.7119C74.9913 42.9238 73.1433 43.1572 71.3336 43.5157C70.453 43.6906 69.5695 44.0079 68.6818 44.1174C67.7827 44.2298 66.9561 44.3337 66.0684 44.5428C65.791 44.6083 65.8948 45.0536 66.1694 45.0294C67.2876 44.9255 68.4257 44.6424 69.5354 44.5812C70.4672 44.5286 71.3948 44.5058 72.3238 44.4162C74.2458 44.2313 76.1721 44.0733 78.0969 43.9225C79.9578 43.7774 81.8214 43.6594 83.6837 43.5555C85.2614 43.4687 87.0113 43.123 88.3472 44.1843C89.4554 45.0664 89.629 46.3809 89.8182 47.694C90.0188 49.0768 90.1753 50.4653 90.2891 51.8595C90.4242 53.5041 90.4968 55.1516 90.5011 56.8004C90.5025 57.6896 90.4584 58.5773 90.4442 59.4665C90.4356 59.9857 90.4541 60.5036 90.4584 61.0229C90.4627 61.5407 90.5864 62.0856 90.5807 62.592C90.5736 63.0345 91.2636 63.0871 91.349 62.6589C91.504 61.8864 91.7658 61.168 91.8711 60.3684C91.9749 59.5959 92.0062 58.8277 92.0219 58.0523C92.0546 56.4689 92.0205 54.8869 91.928 53.3106ZM86.9188 56.863C86.8448 55.6851 86.7837 54.4986 86.667 53.3249C86.4351 50.9561 84.7535 48.9118 82.3464 48.5191C80.4856 48.2161 78.3516 48.7212 76.4993 48.9545C74.1718 49.2504 71.8614 49.6345 69.5667 50.1068C69.2068 50.1808 69.2238 50.7314 69.6122 50.6958C73.2599 50.343 76.909 50.0058 80.5667 49.7995C83.0065 49.663 85.0551 50.8964 85.2543 53.4999C85.4791 56.4746 85.6199 59.4579 85.8177 62.4355C85.8703 63.2379 85.8661 64.0816 86.0837 64.8612C86.1591 65.1301 86.4479 65.6835 86.4536 65.8001C86.4778 66.1928 87.091 66.1672 87.0654 65.7745C87.0725 65.8784 87.0782 65.6024 87.0924 65.5526C87.0924 65.5554 87.2247 65.2154 87.2674 65.0319C87.4338 64.3135 87.3399 63.5509 87.2944 62.8239C87.1692 60.8379 87.0454 58.849 86.9188 56.863ZM75.024 54.261C74.785 54.3179 74.8092 54.655 75.0653 54.6465C78.39 54.5583 78.124 58.8334 78.104 61.0655C78.0912 62.4028 78.0927 63.7401 78.0571 65.0746C78.0215 66.3279 77.8451 67.5742 78.5209 68.6853C78.5593 68.7479 78.6589 68.7507 78.7058 68.6952C79.7216 67.4604 79.5352 65.6607 79.5651 64.1427C79.6007 62.39 79.5936 60.6217 79.3873 58.8803C79.1284 56.6809 77.7512 53.6179 75.024 54.261Z" fill="#DD7B4A"/>
<path d="M31.101 63.2635L31.0071 67.1019C30.0781 66.7249 29.2359 66.1188 28.3538 65.6223C27.6027 65.2012 26.8145 64.8555 26.0249 64.5126C24.1257 63.6918 22.2222 62.8809 20.3187 62.0728C17.6199 60.9318 14.9169 59.7937 12.2508 58.5773L12.4642 55.1089C13.7247 55.7548 15.1174 56.1432 16.4178 56.7193C17.2984 57.1091 18.1377 57.5886 18.9942 58.0296C22.8994 60.0441 27.1816 61.3145 31.101 63.2635ZM15.9383 63.2152C14.665 62.649 13.3021 62.2648 12.063 61.6417L11.8496 65.1073C14.4901 66.3123 17.1675 67.4376 19.8378 68.5686C21.7442 69.3753 23.6477 70.1848 25.5455 71.0099C26.3337 71.3513 27.1247 71.6956 27.873 72.1167C28.856 72.6673 29.7864 73.3573 30.8449 73.7158L30.9388 69.9159C26.934 67.8772 22.5266 66.5926 18.5162 64.5254C17.6583 64.0844 16.8204 63.605 15.9383 63.2152Z" fill="#DB5275"/>
<mask id="mask1_240_6445" style="mask-type:luminance" maskUnits="userSpaceOnUse" x="11" y="29" width="86" height="51">
<path d="M11.2905 29.5153H96.27V79.0465H11.2905V29.5153Z" fill="white"/>
</mask>
<g mask="url(#mask1_240_6445)">
<path d="M96.1848 55.1274L96.1607 58.8249C96.1464 60.1479 95.6286 61.4539 94.7337 62.427C94.5089 62.6689 94.2671 62.8951 94.0025 63.0928L93.2513 63.6448L92.4902 64.1797L91.7234 64.7018C90.6962 65.3918 89.6577 66.0576 88.6078 66.7092C86.5094 68.0109 84.3811 69.2572 82.2314 70.4679C81.9583 70.6187 81.7079 70.7695 81.4063 70.9217C81.1132 71.0682 80.8059 71.1863 80.4915 71.2759C79.8613 71.4552 79.1983 71.5178 78.5453 71.4594C78.2224 71.431 77.8895 71.367 77.585 71.2845L76.6888 71.0398C76.0941 70.8662 75.5009 70.6912 74.9105 70.5048C72.5531 69.7551 70.2356 68.9044 67.938 68.0052C66.7885 67.5557 65.6447 67.0933 64.5066 66.6196L62.8022 65.9011C62.5177 65.7788 62.2389 65.665 61.9415 65.5184C61.657 65.3662 61.3767 65.2012 61.1221 64.9992C60.6042 64.6108 60.1703 64.1171 59.8246 63.5708C59.4917 63.0174 59.2428 62.4085 59.1289 61.7726C59.0621 61.4539 59.0464 61.1296 59.0251 60.8279L58.9625 59.9032L58.8401 58.058C58.5599 53.1328 58.3977 48.2047 58.328 43.2738C58.3223 42.9722 58.3223 42.6464 58.3564 42.3306C58.3892 42.0162 58.456 41.7018 58.5485 41.3988C58.7263 40.7899 59.0237 40.2165 59.4106 39.7143C59.6013 39.4611 59.8204 39.2292 60.0551 39.0172C60.2913 38.8081 60.5303 38.6203 60.7693 38.4211C61.2501 38.0342 61.7409 37.6586 62.2389 37.2944C64.232 35.8376 66.3148 34.5145 68.4274 33.2526C69.4845 32.621 70.55 32.0064 71.627 31.406C72.1633 31.1058 72.7025 30.8099 73.2431 30.5154C73.7837 30.2124 74.3827 29.9919 74.9987 29.898C75.6147 29.8013 76.2463 29.8155 76.8567 29.9435C77.1639 30.0047 77.457 30.1086 77.7501 30.1982L78.6307 30.477C79.8001 30.8611 80.961 31.2623 82.1148 31.6891C84.4181 32.5456 86.6915 33.4902 88.9165 34.5302C90.029 35.0494 91.133 35.5901 92.2213 36.1591C92.4916 36.3028 92.7662 36.4394 93.0308 36.5987C93.294 36.7595 93.5373 36.9458 93.7677 37.1521C94.2202 37.5647 94.6057 38.0569 94.8817 38.6047C95.1989 39.2292 95.2999 39.7527 95.3369 40.097C95.3597 40.4442 95.3497 40.6177 95.3256 40.6191C95.2985 40.622 95.2558 40.4527 95.1932 40.1226C95.115 39.7954 94.9941 39.3032 94.6868 38.7085C94.4193 38.1878 94.0523 37.7198 93.6169 37.3271C93.3964 37.1336 93.1631 36.9558 92.9127 36.8036C92.6666 36.6556 92.3878 36.519 92.1175 36.3768C91.0306 35.8163 89.9294 35.2828 88.8169 34.772C86.5947 33.7491 84.3242 32.8216 82.0252 31.9808C80.8742 31.5611 79.7119 31.1684 78.5468 30.7943L77.669 30.5211L77.2294 30.3846C77.0871 30.3447 76.9491 30.3063 76.8069 30.2779C76.2364 30.1598 75.6474 30.147 75.0712 30.2409C74.4936 30.3348 73.9473 30.5339 73.4323 30.8242C72.896 31.1215 72.3582 31.4188 71.8233 31.7219C70.7563 32.3279 69.695 32.9468 68.6451 33.5827C66.5438 34.8545 64.4781 36.1847 62.5092 37.6415C62.0169 38.0057 61.5347 38.3813 61.0609 38.7654C60.8319 38.9603 60.5829 39.1566 60.3681 39.3516C60.1547 39.545 59.9555 39.757 59.7819 39.9889C59.432 40.4484 59.1659 40.972 59.0038 41.5268C58.9227 41.8042 58.8615 42.0887 58.8345 42.3761C58.8046 42.6663 58.8046 42.9409 58.8145 43.261C58.9113 48.1834 59.1048 53.11 59.4121 58.0282L59.5444 59.8691L59.6112 60.791C59.624 60.9418 59.6297 61.1068 59.6482 61.2434L59.6724 61.4568L59.7108 61.6687C59.8147 62.2335 60.0423 62.7713 60.341 63.2593C60.6526 63.7415 61.0396 64.1769 61.5034 64.5169C61.7281 64.6947 61.9785 64.837 62.2332 64.9693C62.4836 65.0916 62.7781 65.2097 63.0583 65.3292L64.7627 66.0377C65.9022 66.5029 67.0446 66.9596 68.1913 67.4035C70.486 68.2884 72.7978 69.1249 75.1381 69.8575C75.7242 70.0411 76.3118 70.2118 76.8993 70.3811L77.7842 70.6187C78.0687 70.6941 78.3433 70.7424 78.6307 70.7652C79.1983 70.8121 79.7759 70.751 80.3222 70.5902C80.5968 70.5091 80.8628 70.4053 81.1175 70.2744L81.3067 70.1748L81.5087 70.061L81.9085 69.8334C84.0467 68.6184 86.1637 67.3707 88.2464 66.0704C89.2864 65.4189 90.3178 64.7573 91.3336 64.0716C91.8386 63.7273 92.3422 63.3802 92.8373 63.0231C93.082 62.8439 93.3367 62.6632 93.57 62.4839C93.7976 62.3132 94.0053 62.1155 94.196 61.9063C94.9628 61.0613 95.4066 59.9359 95.4109 58.7921L95.4323 55.1089C95.4266 53.8825 95.418 52.6548 95.4123 51.427C95.4123 50.8153 95.4024 50.2007 95.3853 49.5876L95.3469 47.7481C95.3369 47.1534 95.3256 46.5986 95.317 46.0779C95.3028 45.5586 95.29 45.0749 95.2786 44.631C95.2601 43.739 95.2573 42.9964 95.2658 42.4017C95.2843 41.211 95.354 40.6149 95.4436 40.6106C95.5389 40.6078 95.6542 41.1967 95.7765 42.3832C95.8377 42.9765 95.8989 43.7191 95.9572 44.6097C95.9842 45.0564 96.0127 45.5387 96.0454 46.0594C96.071 46.5801 96.0796 47.1377 96.0938 47.7324L96.1322 49.5804C96.1464 50.1964 96.1592 50.811 96.1592 51.427L96.1848 55.1274ZM29.6857 78.0919C23.9666 74.77 17.9374 71.9204 11.9253 69.196C11.4942 69.0068 11.4999 68.994 11.9167 69.2102C14.8659 70.6983 17.7667 72.3017 20.6902 73.8623C23.6138 75.4258 26.5686 76.9253 29.6131 78.2384C29.9788 78.3906 30.2533 78.5044 30.444 78.5841C30.6289 78.6609 30.7185 78.7036 30.7185 78.7036C30.7185 78.7036 30.6289 78.6567 30.4582 78.5557C30.2818 78.449 30.0257 78.2967 29.6857 78.0919Z" fill="#56091F"/>
</g>
<path d="M37.5213 32.2838C36.5809 30.2466 36.7488 27.737 37.9481 25.8406C39.1474 23.9442 41.3425 22.7208 43.5861 22.698L51.6781 21.7448C53.7623 22.1958 55.8209 22.9598 57.4854 24.2914C59.1513 25.6244 60.3919 27.5834 60.5398 29.7117C60.6864 31.84 59.5952 34.0906 57.6703 35.0125C56.1922 35.721 54.4509 35.6072 52.8973 36.1321C51.3964 36.6414 50.1061 37.7355 48.5398 37.9887C47.0431 38.2305 45.5223 37.6501 44.2505 36.8235C43.1379 36.1022 42.1278 35.1733 40.8702 34.7564C40.3495 34.5828 39.7961 34.5018 39.3025 34.2684C38.4816 33.8815 37.9011 33.1076 37.5213 32.2838ZM75.1918 57.122C75.1889 56.9569 75.1775 56.7919 75.159 56.6312C74.9841 55.0563 74.0764 53.6464 72.6964 52.8327C69.7857 51.1169 64.418 48.2346 57.5409 45.7962C56.2633 45.3452 54.8563 45.4306 53.6385 46.0224C50.4589 47.5717 44.0371 50.8566 40.1176 53.9153C38.9311 54.84 38.2212 56.247 38.1714 57.7508C38.17 57.8262 38.1672 57.903 38.1658 57.9827C38.1231 59.3399 38.0747 61.1979 38.0434 63.366C38.0235 64.7474 38.0093 66.2554 38.0093 67.8431C38.0093 69.4934 38.0221 71.2276 38.0534 72.9888C38.0719 73.9804 38.096 74.9777 38.1288 75.9764C38.1899 77.8614 39.2968 79.553 40.994 80.371C44.6232 82.1194 51.1404 85.1227 56.1253 86.6549C57.3702 87.0376 58.7117 86.9152 59.874 86.3319C62.7819 84.868 68.6447 81.8278 72.4674 79.2371C73.7791 78.3494 74.6028 76.9054 74.6953 75.3234C74.7522 74.3261 74.8205 73.0585 74.8887 71.6117C74.9528 70.246 75.0168 68.7195 75.0694 67.1119C75.1135 65.7276 75.1519 64.2836 75.1775 62.8268C75.2117 60.9119 75.2202 58.9743 75.1918 57.122ZM30.5574 68.4762C30.6925 68.5345 30.8277 68.5914 30.9671 68.6483L30.9358 69.9159L30.9244 70.4266C30.5517 70.2559 30.1875 70.0511 29.8262 69.8903C28.927 69.4891 28.0222 69.1021 27.1146 68.7223C25.2964 67.9626 23.464 67.2385 21.6374 66.4973C19.7708 65.7404 17.8716 65.0177 16.0492 64.157C14.6478 63.494 13.275 62.841 12.043 61.922L12.0615 61.6417L12.0956 61.0798C13.7772 61.4796 15.3634 62.171 16.9582 62.8368C18.7607 63.5879 20.5576 64.3448 22.3686 65.0732C24.2579 65.8315 26.1486 66.5897 28.0236 67.3793C28.8716 67.7364 29.718 68.0992 30.5574 68.4762ZM30.61 61.7043C29.7479 61.3288 28.8858 60.9518 28.0265 60.5776C26.1856 59.7752 24.3475 58.9743 22.5037 58.1776C20.6699 57.3837 18.8361 56.5927 17.0009 55.8017C15.6266 55.2071 14.0546 54.3506 12.5153 54.2425L12.4627 55.1089L12.4584 55.1872C13.6477 56.1674 15.3279 56.7108 16.6879 57.3055C18.5289 58.1107 20.3669 58.9145 22.2078 59.7212C24.0502 60.5264 25.8939 61.3216 27.7391 62.124C28.597 62.4939 29.4534 62.8666 30.3113 63.2394C30.5787 63.356 30.8348 63.4869 31.0909 63.6022L31.0994 63.2636L31.1307 61.9106C30.9501 61.8409 30.7751 61.7755 30.61 61.7043Z" fill="#FAEFD6"/>
<path d="M75.1776 62.8268C71.2439 64.9508 67.3089 67.0749 63.3752 69.2003C61.2114 70.3683 58.8725 71.5733 56.4284 71.2987C53.943 71.017 51.9029 69.2672 49.5968 68.2941C48.4359 67.8047 47.2011 67.5116 46.0131 67.0863C44.8707 66.6751 43.7725 66.143 42.6784 65.6124C41.1349 64.8641 39.5898 64.1143 38.0434 63.366C38.0747 61.1979 38.1231 59.3399 38.1658 57.9827C43.3499 60.6246 48.7005 62.9364 54.1778 64.8982C55.084 65.224 56.0087 65.5413 56.9718 65.5882C59.5454 65.7105 61.7505 63.9208 64.0097 62.6803C66.5107 61.3017 69.3304 60.5264 71.7219 58.9657C72.8771 58.2132 73.9527 57.2671 75.1591 56.6312C75.1776 56.7919 75.1889 56.957 75.1918 57.122C75.2202 58.9743 75.2117 60.9119 75.1776 62.8268ZM60.5584 75.5454C57.9051 76.3022 55.1082 75.5254 52.4933 74.6107C47.5027 72.8708 42.6486 70.6344 38.0093 67.9299C38.0093 69.7822 38.0221 71.7255 38.0534 73.703C41.9742 75.0716 45.8495 76.6138 49.6622 78.3238C53.1648 79.8958 56.9462 81.6443 60.5897 80.546C62.0237 80.1149 63.324 79.2642 64.6058 78.4234C65.7838 77.6495 66.9603 76.877 68.1383 76.1016C70.3292 74.6619 72.5414 73.2108 74.8888 72.1566C74.9528 70.6244 75.0168 68.9129 75.0694 67.1104C71.4701 69.3084 67.8736 71.5064 64.2758 73.7044C63.0821 74.4343 61.8743 75.1684 60.5584 75.5454Z" fill="#DD7B4A"/>
<mask id="mask2_240_6445" style="mask-type:luminance" maskUnits="userSpaceOnUse" x="37" y="45" width="39" height="43">
<path d="M37.5127 45.1759H75.3895V87.2083H37.5127V45.1759Z" fill="white"/>
</mask>
<g mask="url(#mask2_240_6445)">
<path d="M75.3738 66.8472C75.3639 67.7407 75.3269 68.7806 75.2799 69.9714L75.2031 71.8166L75.1078 73.6632C75.0736 74.282 75.0509 74.8838 75.0039 75.5183C74.947 76.1727 74.7635 76.8115 74.479 77.4019C74.1902 77.9895 73.7961 78.5244 73.3181 78.9711C73.0848 79.1959 72.8116 79.3965 72.5513 79.5715C72.2938 79.7422 72.0363 79.9143 71.7745 80.0822C70.7331 80.7508 69.6761 81.3882 68.6063 82.007C66.468 83.2405 64.2942 84.4056 62.1019 85.5381L60.4544 86.3789L60.0419 86.5851C59.8996 86.6549 59.7488 86.726 59.5994 86.7857C59.2964 86.9067 58.982 87.0006 58.6633 87.0646C58.0246 87.194 57.3616 87.2068 56.7186 87.0959C56.4013 87.0461 56.0727 86.9522 55.7881 86.854C55.4922 86.7587 55.1963 86.6677 54.9047 86.5652C52.5601 85.7742 50.2725 84.8424 48.0048 83.8665C45.7399 82.8862 43.5007 81.8548 41.2799 80.7821L40.8631 80.5787C40.7194 80.5005 40.5743 80.4336 40.4391 80.344C40.1603 80.1818 39.907 79.9798 39.6623 79.7706C39.1872 79.3367 38.7775 78.8217 38.4872 78.2455C38.1885 77.6736 38.005 77.0448 37.9324 76.4061C37.9153 76.2481 37.9068 76.0831 37.8997 75.9266L37.8897 75.4643L37.8684 74.5381C37.857 73.9221 37.8357 73.3047 37.8342 72.6887L37.8243 70.8378C37.8214 69.6058 37.8001 68.3723 37.8157 67.1389L37.8584 63.4414L37.9537 59.7453L38.0035 57.8973C38.0092 57.2699 38.1316 56.6297 38.3592 56.0393C38.5911 55.4475 38.924 54.8969 39.3508 54.4275C39.5656 54.1941 39.7989 53.9779 40.0493 53.7844L40.7919 53.2282C42.7979 51.7842 44.9219 50.5223 47.0715 49.3201C49.2269 48.1251 51.4177 46.9998 53.6357 45.9285C54.7667 45.3922 56.0954 45.2841 57.2919 45.6397C58.4642 46.0423 59.6094 46.4819 60.7518 46.9429C63.0351 47.8576 65.2787 48.8763 67.4795 49.9731C68.5792 50.5237 69.6676 51.0956 70.7431 51.6903C71.2808 51.989 71.8158 52.2921 72.3464 52.6036C72.611 52.7601 72.8813 52.9095 73.1275 53.0959C73.3736 53.2794 73.6083 53.4814 73.8189 53.7076C74.671 54.601 75.1661 55.816 75.1946 57.0466C75.1988 58.2757 75.1846 59.5035 75.1803 60.7327C75.1661 63.5268 74.9897 63.5268 74.9897 60.7298C74.9883 59.5063 74.9883 58.2814 74.9854 57.0565C74.9513 55.8786 74.4747 54.7191 73.6581 53.8684C73.4561 53.6521 73.2327 53.4615 72.9966 53.2865C72.7633 53.1087 72.5029 52.9678 72.2355 52.8113C71.7076 52.504 71.1727 52.2053 70.635 51.9108C69.5623 51.3218 68.474 50.7556 67.3757 50.2121C65.1777 49.1295 62.9356 48.1294 60.6536 47.2274C60.0846 46.9998 59.5112 46.7821 58.9379 46.5659C58.6505 46.4563 58.3617 46.3567 58.0729 46.25C57.787 46.1505 57.4896 46.0324 57.2179 45.9513C56.0954 45.6212 54.852 45.7237 53.7964 46.2301C51.5942 47.3071 49.4104 48.4438 47.2679 49.6473C45.131 50.858 43.0241 52.1256 41.0452 53.5668L40.3153 54.1202C40.0835 54.3008 39.8715 54.4986 39.6766 54.7163C39.2882 55.1502 38.9837 55.6566 38.7732 56.2001C38.5683 56.7478 38.4602 57.3169 38.4559 57.9158L38.4175 59.7638L38.3407 63.4585L38.3165 67.1545C38.3066 68.3865 38.335 69.62 38.3407 70.8506L38.3592 72.6986C38.3649 73.3146 38.3891 73.9292 38.4033 74.5466L38.4275 75.4699L38.4403 75.9323C38.4502 76.0803 38.4545 76.2225 38.473 76.3676C38.5413 76.941 38.7134 77.5058 38.9852 78.0165C39.2498 78.5315 39.6225 78.9867 40.0507 79.3737C40.2727 79.5587 40.5003 79.7393 40.7521 79.8816C40.873 79.9613 41.0068 80.021 41.1334 80.0893L41.5502 80.2899C43.771 81.3498 46.0102 82.3712 48.2694 83.3401C50.53 84.3018 52.8119 85.2208 55.1351 85.9976C55.4239 86.0972 55.717 86.1854 56.0072 86.2779L56.2249 86.3476L56.4326 86.4073C56.572 86.4415 56.7129 86.4713 56.8551 86.4941C57.4228 86.5851 58.0089 86.5695 58.5723 86.45C58.854 86.3902 59.1285 86.3049 59.396 86.1953C59.5311 86.1399 59.6563 86.0815 59.7915 86.0118L60.2026 85.8041L61.8444 84.9633C64.0239 83.8323 66.1877 82.6657 68.3089 81.4394C69.3688 80.8248 70.4173 80.1917 71.4445 79.5288L72.2098 79.0237C72.456 78.8559 72.6836 78.6894 72.8913 78.486C73.3096 78.0919 73.6553 77.621 73.9056 77.1046C74.1532 76.5867 74.3139 76.0234 74.3637 75.4515C74.4036 74.8596 74.4306 74.2308 74.4648 73.6248L74.5601 71.7867L74.6383 69.9486C74.6853 68.7621 74.7436 67.7222 74.7877 66.833C74.829 65.9438 74.8745 65.2012 74.9186 64.6094C75.0096 63.4229 75.1064 62.8297 75.1846 62.8325C75.2657 62.8339 75.3312 63.43 75.3624 64.6208C75.3724 65.2112 75.3781 65.9567 75.3738 66.8472Z" fill="#56091F"/>
</g>
<path d="M67.4656 48.0169C67.4656 48.0297 67.4656 48.0411 67.4656 48.0554C67.4656 48.0582 67.4656 48.0582 67.4656 48.0596C67.4656 48.0653 67.4656 48.0739 67.4656 48.0795C67.4656 48.0824 67.4656 48.0867 67.4656 48.0881C67.4599 48.9374 66.9961 49.6715 66.3061 50.0641C66.7044 50.7456 66.7414 51.6134 66.326 52.3489C65.9177 53.0802 65.168 53.497 64.3869 53.5141C64.4182 54.2866 64.0569 55.0577 63.3655 55.5186C62.6797 55.9739 61.8375 56.0108 61.1433 55.6893C60.836 56.3893 60.1873 56.9228 59.3735 57.0408C59.2554 57.0593 59.1388 57.065 59.0249 57.065C58.3478 57.0608 57.7246 56.7549 57.3035 56.2612C56.7331 56.7677 55.9236 56.9797 55.1397 56.752C54.3501 56.5216 53.7782 55.9027 53.5733 55.1644C52.835 55.3835 52.0056 55.2255 51.3896 54.6764C51.3896 54.6764 51.3896 54.6764 51.3896 54.6735C50.7664 54.1159 50.5232 53.2964 50.6711 52.531C49.8986 52.3945 49.2172 51.8638 48.9241 51.0742C48.6296 50.2804 48.8017 49.4254 49.3039 48.8151C48.695 48.3242 48.3508 47.5361 48.4688 46.7038C48.5812 45.91 49.0891 45.267 49.7635 44.9525C49.4363 44.2953 49.4291 43.4915 49.8147 42.8029C50.2016 42.1172 50.8874 41.706 51.6172 41.6435C51.5332 40.9065 51.8107 40.1426 52.4181 39.6304C53.0512 39.0969 53.8892 38.9674 54.619 39.2136C54.8608 38.4539 55.4911 37.8435 56.3262 37.6671C57.1869 37.485 58.0376 37.8108 58.5626 38.4439C59.1857 37.9204 60.0706 37.7454 60.8829 38.0697C61.6569 38.3785 62.169 39.0628 62.2942 39.8296C63.0383 39.6958 63.8307 39.9292 64.3827 40.5238C64.919 41.1 65.0997 41.881 64.9361 42.5952C65.6517 42.7403 66.2862 43.2226 66.5935 43.9467C66.8979 44.6666 66.8083 45.459 66.4156 46.0736C67.053 46.4847 67.4712 47.2032 67.4656 48.0169Z" fill="#DB5275"/>
<path d="M48.3776 38.3244C47.2195 38.4567 46.0785 38.1466 45.0798 37.66C44.5776 37.4168 44.0996 37.1208 43.6529 36.8079C43.2048 36.4963 42.7766 36.1734 42.3384 35.8803C41.9031 35.5872 41.4549 35.3283 40.9869 35.1434C40.5273 34.9584 39.9981 34.8802 39.4476 34.681C39.173 34.5814 38.8984 34.4363 38.658 34.2641C38.4176 34.0892 38.2027 33.8857 38.0107 33.6652C37.6337 33.2213 37.3449 32.7234 37.1329 32.1999C36.6961 31.1556 36.5283 30.0133 36.6165 28.8908C36.7061 27.7726 37.049 26.6672 37.6493 25.7083C38.2497 24.7494 39.0876 23.9556 40.0508 23.3865C41.1234 22.7577 42.0638 22.5884 42.6699 22.5557C42.9772 22.5457 43.2076 22.56 43.3556 22.597C43.5064 22.6268 43.5832 22.6667 43.5861 22.7051C43.5875 22.7449 43.5163 22.7876 43.3727 22.8331C43.2261 22.873 43.0127 22.9284 42.7353 22.9953C42.1847 23.1447 41.3539 23.3723 40.3822 23.9456C39.5016 24.4663 38.7391 25.1933 38.1985 26.0583C37.6579 26.9233 37.3406 27.9305 37.2581 28.9548C37.177 29.9777 37.3306 31.0219 37.7247 31.968C38.1088 32.9084 38.7519 33.779 39.6752 34.1048C40.139 34.2784 40.6853 34.3637 41.223 34.58C41.7508 34.7905 42.2345 35.0779 42.6869 35.3866C43.5932 36.0083 44.4055 36.6912 45.3473 37.145C46.2763 37.6031 47.3091 37.8848 48.3235 37.7724C49.3407 37.6686 50.2811 37.1422 51.2342 36.6471C51.7137 36.3981 52.2059 36.152 52.7309 35.9699C53.2558 35.7821 53.8007 35.6783 54.3356 35.5901C55.4026 35.4193 56.4796 35.334 57.437 34.9228C58.3902 34.5188 59.1784 33.7591 59.6877 32.8458C60.2012 31.931 60.4587 30.8711 60.4146 29.8212C60.3691 28.767 60.0405 27.7313 59.5198 26.808C58.9991 25.8819 58.2935 25.061 57.4697 24.3852C56.646 23.7081 55.7099 23.1703 54.7283 22.7478C53.7452 22.3267 52.7195 22.0151 51.6738 21.7832C49.3179 22.0478 46.9677 22.3096 44.6189 22.5742C43.2404 22.7307 43.2275 22.5514 44.6047 22.3836C46.9435 22.0962 49.2866 21.8117 51.6497 21.5229L51.6852 21.5186L51.7222 21.5257C52.7821 21.7519 53.8306 22.0535 54.8378 22.4746C55.8451 22.8943 56.8111 23.4349 57.6703 24.1277C58.531 24.8191 59.2751 25.6614 59.8314 26.6245C60.3862 27.5848 60.7475 28.6731 60.8087 29.7984C60.8685 30.9266 60.6053 32.0633 60.0647 33.0549C59.5283 34.0465 58.6733 34.8944 57.6205 35.3525C56.5664 35.812 55.4524 35.9045 54.411 36.0851C53.8889 36.1762 53.3753 36.2801 52.8959 36.4579C52.4122 36.63 51.9442 36.869 51.4718 37.1194C50.9981 37.3698 50.5201 37.6344 50.0093 37.8578C49.5015 38.0797 48.9523 38.2604 48.3776 38.3244ZM67.4838 46.9158C67.3174 46.5602 67.0627 46.2486 66.7554 46.0039C67.0954 45.3424 67.1338 44.5329 66.8365 43.8472C66.552 43.1614 65.9459 42.6222 65.2346 42.406C65.3299 41.6577 65.0795 40.8681 64.5503 40.3261C64.0324 39.7684 63.2471 39.4839 62.4903 39.5507C62.3978 39.1993 62.2299 38.8679 61.9981 38.5848C61.7164 38.239 61.3379 37.9716 60.9211 37.8165C60.5043 37.66 60.0419 37.6173 59.6023 37.697C59.2395 37.7596 58.8938 37.909 58.5908 38.121C58.3233 37.8564 58.0047 37.6486 57.6504 37.522C57.225 37.3698 56.7584 37.3371 56.316 37.4267C55.8749 37.5135 55.4567 37.7212 55.1224 38.0228C54.8421 38.2746 54.6244 38.5904 54.4807 38.939C53.731 38.7569 52.9016 38.939 52.3126 39.4327C51.708 39.9178 51.3666 40.6945 51.395 41.4614C50.6609 41.588 49.9937 42.0546 49.638 42.7076C49.2681 43.362 49.2354 44.1815 49.5214 44.8672C48.8442 45.2499 48.3648 45.9612 48.2851 46.7323C48.1883 47.5119 48.5056 48.3143 49.0803 48.8336C48.7474 49.2988 48.5824 49.8792 48.6294 50.4454C48.6735 50.9106 48.8228 51.1084 48.847 51.0956C48.8897 51.0799 48.8157 50.8665 48.7816 50.434C48.7403 49.8522 48.9367 49.2604 49.3108 48.8165L49.3165 48.8108L49.3108 48.8051C48.7062 48.32 48.3832 47.519 48.4885 46.7579C48.5782 45.9939 49.0889 45.304 49.7846 44.991L49.8272 44.9725L49.8073 44.9298C49.4815 44.2739 49.5057 43.4645 49.8713 42.8371C50.227 42.2054 50.907 41.7772 51.6241 41.7288L51.7137 41.7231L51.7037 41.6335C51.6226 40.8966 51.9442 40.1397 52.5218 39.6887C53.0908 39.2278 53.896 39.0955 54.5775 39.3373L54.7041 39.3814L54.7439 39.252C54.9801 38.515 55.6374 37.9417 56.3914 37.8094C57.1425 37.66 57.9534 37.9631 58.4258 38.5535L58.5353 38.6929L58.6733 38.5762C59.2466 38.0982 60.0746 37.9616 60.7603 38.2348C61.4532 38.4909 61.9724 39.1382 62.0777 39.8623L62.1104 40.08L62.3295 40.0416C63.0053 39.9192 63.7294 40.1568 64.1904 40.6604C64.6641 41.1526 64.8562 41.8839 64.6968 42.5412L64.6385 42.7844L64.886 42.8342C65.539 42.9637 66.1067 43.4303 66.3585 44.0421C66.6217 44.651 66.5562 45.3794 66.1963 45.9328L66.0555 46.149L66.2731 46.2913C66.5904 46.499 66.8465 46.7935 67.0101 47.1363C67.1722 47.482 67.2249 47.8548 67.1922 48.2474C67.1296 48.9047 66.8322 49.3372 66.6231 49.6018C66.4083 49.8707 66.2674 49.9987 66.3016 50.0599C66.3101 50.0741 66.3329 50.0826 66.3656 50.0826C66.377 50.1495 66.4197 50.2676 66.4851 50.4454C66.7284 51.1283 66.6188 51.9207 66.2006 52.504C65.7937 53.0987 65.0895 53.4615 64.3824 53.4629H64.3326L64.3355 53.5112C64.3639 54.2795 63.9656 55.0363 63.3268 55.4404C62.6966 55.8601 61.8558 55.9084 61.1871 55.5812L61.0819 55.53L61.0321 55.641C60.7319 56.3125 60.0746 56.8004 59.3548 56.8872C58.6363 56.9882 57.888 56.6909 57.4384 56.1375L57.3232 55.9938L57.1809 56.1204C57.144 56.1531 57.1055 56.1801 57.0671 56.2086C57.0586 56.2015 57.0501 56.1958 57.0429 56.1901C57.1141 56.1147 57.1809 56.0379 57.2421 55.9596C58.0189 54.9467 57.898 53.5525 56.9775 52.844C56.215 52.2607 55.1409 52.3319 54.3541 52.9465C54.3399 52.9009 54.3271 52.8568 54.3129 52.8156C53.8747 51.6177 52.6356 50.9675 51.5458 51.3673C51.1062 51.5281 50.7591 51.8368 50.5286 52.2237C50.3252 52.1668 50.1303 52.0786 49.9524 51.9606C49.5968 51.7244 49.3862 51.4726 49.2354 51.3061C49.086 51.134 48.9907 51.0429 48.9281 51.0657C48.8712 51.0856 48.8428 51.2279 48.9267 51.4783C49.0092 51.7244 49.2183 52.0929 49.6679 52.393C49.8671 52.5253 50.0876 52.6264 50.3152 52.6975C50.1673 53.1798 50.1701 53.7275 50.3636 54.2581C50.3807 54.3008 50.3977 54.3421 50.4162 54.3848C49.4175 54.4232 48.5525 55.0605 48.3463 56.0009C48.0987 57.1362 48.9054 58.2771 50.153 58.5531C50.2483 58.5731 50.3494 58.5887 50.4518 58.5987C50.2398 59.5333 50.5955 60.4965 51.4007 60.956C52.4094 61.5322 53.7395 61.1011 54.3726 59.9914C54.4409 59.8719 54.5007 59.7411 54.5547 59.6031C54.6856 59.6713 54.8151 59.7354 54.946 59.7823C56.1438 60.2219 57.4384 59.6927 57.8382 58.6015C58.0488 58.0253 57.9662 57.4107 57.6675 56.8915C58.1811 57.2201 58.8099 57.3666 59.4131 57.2699C60.1884 57.1604 60.8841 56.6539 61.2483 55.9682C61.9867 56.2299 62.846 56.1289 63.489 55.6836C64.1505 55.2455 64.5574 54.4715 64.5731 53.6862C65.2915 53.6108 65.9687 53.2139 66.3628 52.6136C66.8038 51.9705 66.9019 51.1169 66.6288 50.3942C66.5662 50.2306 66.4993 50.1268 66.451 50.0727C66.5477 50.0499 66.69 49.9888 66.8678 49.8607C67.0286 49.7426 67.2135 49.5662 67.3757 49.303C67.5379 49.0441 67.6744 48.7013 67.7114 48.2901C67.7513 47.8377 67.6887 47.344 67.4838 46.9158ZM62.0678 49.5904C62.3608 49.3941 62.6169 49.1423 62.8203 48.8407C63.0209 48.5405 63.1675 48.1877 63.2144 47.8121C63.2642 47.4351 63.2059 47.0396 63.0494 46.6939C62.8929 46.3482 62.6368 46.0494 62.3224 45.8531C62.247 45.8061 62.1816 45.7805 62.1403 45.762C62.1005 45.7436 62.0834 45.7293 62.0834 45.7293C62.0834 45.7293 62.1005 45.7436 62.1247 45.7805C62.1517 45.8147 62.183 45.8744 62.2299 45.9456C62.422 46.2401 62.5643 46.5431 62.6639 46.8532C62.7634 47.1605 62.8175 47.4778 62.8161 47.7936C62.8104 48.4196 62.5757 49.0939 62.0592 49.5819C61.9909 49.6516 61.9838 49.643 62.0678 49.5904ZM61.2682 53.0275C60.7988 53.4017 60.1699 53.6535 59.4928 53.5767C59.396 53.5682 59.3989 53.5582 59.4885 53.5895C59.8129 53.6848 60.1557 53.719 60.5014 53.682C60.8471 53.6464 61.1957 53.5397 61.5044 53.3491C61.8131 53.157 62.0763 52.8867 62.2484 52.568C62.4234 52.2494 62.5088 51.888 62.4946 51.5338C62.4903 51.4484 62.4789 51.383 62.4704 51.3417C62.4647 51.299 62.4661 51.2791 62.4661 51.2791C62.4718 51.2791 62.4405 51.3602 62.3665 51.5096C62.2285 51.8183 62.072 52.1 61.8914 52.3532C61.7093 52.6107 61.5044 52.8355 61.2682 53.0275ZM59.8911 41.891C59.8797 41.8554 59.8655 41.8099 59.847 41.7587C59.682 41.3504 59.3462 41.0018 58.9422 40.7884C58.5367 40.5708 58.0559 40.4854 57.5949 40.5537C57.1354 40.622 56.7129 40.8269 56.3715 41.11C56.03 41.3931 55.7654 41.7544 55.599 42.1442C55.5534 42.2552 55.5463 42.2509 55.6089 42.1499C55.8237 41.7914 56.1353 41.4927 56.4938 41.2864C56.8509 41.0815 57.2521 40.9649 57.6419 40.9492C58.0331 40.9307 58.4158 41.0161 58.7686 41.1669C59.1229 41.3177 59.4543 41.5296 59.7389 41.8284C59.8057 41.901 59.8626 41.9564 59.8911 41.9991C59.9238 42.0404 59.9366 42.0617 59.9366 42.0617C59.9366 42.0617 59.9267 42.0404 59.9139 41.9892C59.9053 41.9564 59.8982 41.9266 59.8911 41.891ZM55.1821 45.5543C54.9787 45.8616 54.8606 46.2287 54.8435 46.5986C54.8265 46.967 54.9004 47.3327 55.0413 47.6584C55.1821 47.9871 55.3827 48.2773 55.6246 48.5177C55.6957 48.5846 55.6886 48.5889 55.6345 48.512C55.4425 48.2389 55.3102 47.9216 55.2461 47.5973C55.1835 47.2715 55.1864 46.9429 55.2404 46.6313C55.2959 46.3211 55.4026 46.0309 55.5463 45.7578C55.6886 45.4846 55.8565 45.2243 56.0784 44.9767C56.1339 44.917 56.1723 44.8672 56.2022 44.8387C56.2335 44.8074 56.2491 44.7975 56.2491 44.7975C56.2491 44.7975 56.2306 44.8074 56.1908 44.816C56.1495 44.8245 56.0841 44.8359 56.0058 44.8686C55.6744 44.9995 55.3856 45.247 55.1821 45.5543ZM51.5515 45.4875C51.718 45.2285 51.9157 44.9881 52.1732 44.7747C52.2372 44.7235 52.2842 44.6808 52.3183 44.6566C52.3525 44.6325 52.3709 44.6239 52.3709 44.6239C52.3709 44.6239 52.3525 44.631 52.3098 44.6353C52.2671 44.6367 52.2017 44.6381 52.1163 44.6595C51.7677 44.7406 51.4434 44.9597 51.2101 45.2513C50.9753 45.5401 50.8259 45.9043 50.7847 46.277C50.742 46.6469 50.7975 47.0197 50.917 47.3554C51.0393 47.694 51.2214 47.997 51.4462 48.2574C51.5131 48.3285 51.5031 48.3342 51.4562 48.2503C51.2826 47.9615 51.1688 47.6357 51.1247 47.3042C51.0792 46.9756 51.1005 46.6412 51.1773 46.334C51.2527 46.0281 51.385 45.7464 51.5515 45.4875ZM63.8859 43.7433C64.1761 44.153 64.4038 44.641 64.4792 45.1987C64.4934 45.2783 64.4834 45.2783 64.492 45.1987C64.5119 44.9213 64.5105 44.6424 64.472 44.3593C64.4322 44.0776 64.3554 43.7917 64.2188 43.5271C64.0851 43.2624 63.8916 43.0234 63.6526 42.8456C63.4122 42.6692 63.1248 42.5554 62.8303 42.5284C62.7592 42.5227 62.7037 42.5284 62.6681 42.5298C62.6326 42.5326 62.6169 42.5269 62.6169 42.5269C62.6183 42.5198 62.6781 42.5625 62.7862 42.6479C63.2329 42.9864 63.5914 43.3336 63.8859 43.7433ZM54.1521 41.1612C54.1194 41.1569 54.0696 41.1484 54.0027 41.1526C53.7282 41.1654 53.455 41.265 53.2231 41.4301C52.9912 41.5937 52.8049 41.8241 52.6868 42.0873C52.4464 42.6137 52.5033 43.2326 52.7679 43.6821C52.8077 43.7447 52.7977 43.7476 52.7793 43.6779C52.7053 43.436 52.701 43.1728 52.7508 42.9295C52.8049 42.6848 52.9101 42.4586 53.0424 42.2637C53.1747 42.0688 53.3312 41.901 53.4963 41.743C53.6627 41.5837 53.8391 41.4315 54.0454 41.275C54.1422 41.1939 54.1991 41.1541 54.1991 41.1612C54.1991 41.1612 54.1848 41.1654 54.1521 41.1612ZM54.1991 50.7115C54.0981 50.5991 54.0483 50.5336 54.0554 50.5322C54.0554 50.5322 54.0611 50.5507 54.0653 50.5891C54.0668 50.6275 54.0668 50.6887 54.0838 50.7669C54.1478 51.0856 54.3086 51.3929 54.5377 51.6419C54.7653 51.8923 55.0612 52.0829 55.3856 52.191C56.0357 52.4101 56.7613 52.2821 57.2805 51.9264C57.3531 51.8738 57.3574 51.8809 57.2763 51.9165C56.9932 52.0402 56.6802 52.0857 56.3771 52.0601C56.0741 52.036 55.7839 51.9463 55.525 51.8183C55.2675 51.6902 55.0356 51.5238 54.8193 51.3389C54.6045 51.1511 54.4011 50.9476 54.1991 50.7115Z" fill="#56091F"/>
<path d="M56.0202 24.6627L55.9733 25.1208C55.9704 25.1407 55.969 25.1592 55.9661 25.1791C55.9647 25.199 55.9633 25.2204 55.9605 25.2389L55.959 25.2588C55.5721 28.5266 52.2758 30.8555 48.5541 30.4685C44.8324 30.0816 42.0853 27.1267 42.3755 23.8489H42.3741L42.4353 23.2528C42.6985 20.6977 44.9605 18.8426 47.4857 19.1044C47.8584 19.1428 48.2084 19.2466 48.5257 19.4017C49.2441 19.7517 50.0735 19.8399 50.8474 19.6421C51.1917 19.5539 51.5559 19.5255 51.9258 19.5639C54.451 19.8285 56.2834 22.1104 56.0202 24.6627Z" fill="#DB5275"/>
<mask id="mask3_240_6445" style="mask-type:luminance" maskUnits="userSpaceOnUse" x="32" y="3" width="26" height="41">
<path d="M32.4141 3.07812H57.1796V43.7191H32.4141V3.07812Z" fill="white"/>
</mask>
<g mask="url(#mask3_240_6445)">
<path d="M55.9515 25.3342L55.9643 25.3441L55.9316 25.3484L55.9515 25.3342ZM56.0226 25.2673L55.9373 25.3213L55.9501 25.3342L55.9984 25.3014C56.0084 25.2858 56.0169 25.273 56.0226 25.2673ZM55.9643 25.3441L55.9785 25.3569L55.9799 25.3526C55.9828 25.3484 55.9828 25.3441 55.9842 25.3427L55.9643 25.3441ZM52.0278 10.8302C52.9468 8.91672 54.1661 7.14693 55.7082 5.6816C56.2303 5.18509 57.5932 4.33577 56.8307 3.4836C56.4622 3.07245 55.97 3.3143 55.5958 3.57891C55.1861 3.87056 54.829 4.22765 54.5146 4.61888C53.3978 6.00312 52.6011 7.62921 51.9268 9.26527C51.2041 11.0251 50.6336 12.8489 50.1684 14.6927C49.7772 16.2391 49.4599 17.8069 49.2351 19.386C49.0502 19.3391 48.8695 19.2751 48.696 19.194C48.3503 19.0218 47.9434 18.8924 47.5422 18.8525C47.343 18.8426 47.1467 18.8241 46.9489 18.8284C46.7512 18.8426 46.552 18.8383 46.3571 18.8767C45.5718 18.9863 44.8135 19.2879 44.179 19.7645C44.0994 19.8228 44.0211 19.8825 43.9429 19.9437L43.7238 20.1429C43.5716 20.2681 43.4506 20.4288 43.3155 20.5725C43.0694 20.8812 42.8403 21.207 42.6739 21.567C42.6312 21.6566 42.5871 21.7448 42.5487 21.8358L42.4462 22.1147C42.3694 22.2982 42.3381 22.4945 42.2841 22.6837C42.2456 22.8772 42.2186 23.075 42.1916 23.267L42.1347 23.8261L42.1048 24.1192L42.119 24.1164C42.092 24.8675 42.22 25.6215 42.4875 26.3215C42.7863 27.111 43.2543 27.8295 43.8333 28.4327C44.9885 29.6519 46.5805 30.4059 48.2194 30.6279C49.8597 30.8569 51.5839 30.5809 53.0251 29.7501C53.745 29.3389 54.3937 28.7997 54.9087 28.1482C55.4251 27.4994 55.8035 26.7383 55.9942 25.9302C56.0525 25.6329 56.0682 25.4323 56.0639 25.3342H56.0696L56.0596 25.2972C56.0596 25.2929 56.0582 25.2915 56.0582 25.2872L56.0539 25.2716C56.0482 25.2488 56.0397 25.2459 56.0269 25.2687L56.0112 25.3L56.0027 25.3029C55.997 25.3142 55.9913 25.3285 55.9871 25.3441H55.9885L55.9828 25.3569C55.9458 25.4565 55.9017 25.6358 55.8491 25.8961C55.6556 26.6814 55.2772 27.4155 54.7664 28.0386C54.2585 28.6632 53.6212 29.1796 52.9184 29.5694C51.5085 30.3547 49.8355 30.5966 48.2564 30.3519C46.6758 30.1171 45.1635 29.3702 44.0837 28.198C43.5431 27.6147 43.112 26.9318 42.8432 26.1906C42.57 25.4494 42.4662 24.6499 42.5444 23.8688L42.5515 23.7849L42.6056 23.3111C42.634 23.1305 42.6582 22.9526 42.6966 22.7762C42.7493 22.6027 42.7777 22.4234 42.8517 22.257L42.947 22.0051C42.9812 21.9212 43.0267 21.8415 43.0651 21.7604C43.2187 21.4347 43.4307 21.1402 43.6569 20.8613C43.8988 20.5967 44.1506 20.3378 44.4493 20.1358C45.0269 19.7104 45.7141 19.4444 46.4226 19.3505C46.5975 19.3163 46.7782 19.322 46.9546 19.3121C47.1325 19.3078 47.3103 19.3291 47.4881 19.3391C47.8381 19.3789 48.1625 19.4785 48.4868 19.6435C48.7059 19.7474 48.9364 19.8271 49.1711 19.8854C49.1427 20.1144 49.1142 20.3421 49.0886 20.5683C49.0417 20.9837 49.6918 20.9808 49.7388 20.5683C49.7615 20.3719 49.7886 20.1785 49.8142 19.9835C50.1556 20.0063 50.4999 19.9821 50.8356 19.9067C51.1927 19.8143 51.5228 19.7858 51.8727 19.8185C52.0449 19.8456 52.2227 19.8697 52.3949 19.9039C52.5642 19.9551 52.7406 19.9835 52.9042 20.0547C54.2415 20.5227 55.3013 21.6978 55.6456 23.0707C55.8235 23.7607 55.8235 24.2999 55.8462 24.6669C55.8548 25.0468 55.9017 25.2403 55.9643 25.2459C56.0297 25.2545 56.1108 25.071 56.2005 24.7025C56.2773 24.3241 56.347 23.7137 56.1478 22.9412C55.7666 21.4076 54.5829 20.0931 53.082 19.5724C52.8999 19.4956 52.705 19.4614 52.5129 19.4059C52.3195 19.3633 52.1246 19.3391 51.9268 19.3106C51.5285 19.2694 51.1017 19.3149 50.7318 19.4116C50.4529 19.4771 50.167 19.4998 49.8796 19.487C50.2865 16.5564 51.0163 13.6442 52.0164 10.8686C52.0136 10.8501 52.0207 10.8401 52.0278 10.8302ZM47.1524 43.3023C44.8662 42.0944 42.57 40.8823 40.271 39.6688C37.9791 38.4496 35.7029 37.2062 33.4721 35.886C33.2018 35.7266 33.0027 35.5972 32.8675 35.5161C32.7338 35.4336 32.6641 35.398 32.6641 35.398C32.6641 35.398 32.7352 35.4293 32.8817 35.4876C33.0283 35.5445 33.2516 35.6214 33.5447 35.7366C35.9604 36.7054 38.2693 37.9175 40.51 39.2335C42.755 40.548 44.9444 41.9508 47.1609 43.2881C47.4739 43.4801 47.4796 43.4702 47.1524 43.3023Z" fill="#56091F"/>
</g>
<path d="M15.9963 43.961C16.8968 43.5157 17.7945 43.0917 18.6524 42.6991C18.9782 42.5483 19.2997 42.4046 19.6127 42.2623C19.9442 42.2509 20.2771 42.2453 20.6114 42.2396C22.3257 42.2026 24.04 42.2125 25.7543 42.268C27.8683 42.3377 29.9269 42.5326 31.9684 42.8926C32.8348 43.3222 33.6628 43.7518 34.4496 44.1729C31.499 44.1957 28.5669 44.116 25.6134 44.0463C23.8935 44.0079 22.172 44.0136 20.4549 44.0662C18.9469 44.1132 17.4744 44.2299 15.9963 43.961ZM41.8829 48.623C41.7535 48.5362 41.6183 48.4466 41.4789 48.3527C39.4431 47.7666 37.2749 47.4877 35.2092 47.2075C32.3796 46.8219 29.53 46.6413 26.679 46.5189C23.9731 46.4037 21.263 46.3852 18.5542 46.3994C16.608 46.4094 14.4797 46.2358 12.4923 46.536C12.0698 47.0823 11.7283 47.6869 11.4751 48.3328C13.7144 48.7909 16.1713 48.4665 18.4205 48.448C21.1349 48.4267 23.8522 48.448 26.568 48.5149C29.2739 48.5832 31.9756 48.7454 34.6758 48.9147C37.4016 49.0854 40.153 49.5534 42.8802 49.5477C42.8916 49.5477 42.9015 49.5477 42.9115 49.5449C42.8432 49.4638 42.7721 49.3841 42.6967 49.3073C42.4548 49.0527 42.1817 48.8222 41.8829 48.623ZM39.4431 52.4571C36.1183 51.6561 32.6869 51.3986 29.2739 51.2265C27.5582 51.1383 25.8439 51.1084 24.1253 51.1098C22.5889 51.1127 20.8433 50.9761 19.4846 51.8069C19.3481 51.8923 19.3566 52.1014 19.496 52.1768C20.8461 52.8967 22.5035 52.7288 23.9873 52.7302C25.7045 52.7302 27.4231 52.7644 29.1402 52.7971C32.5588 52.8625 35.9789 53.0944 39.3961 52.9948C39.7077 52.9849 39.739 52.5282 39.4431 52.4571ZM40.9297 27.1224C41.173 27.4183 41.4689 27.6616 41.8004 27.8508C41.9669 27.9476 42.1433 28.0301 42.3311 28.077C42.4932 28.1183 42.7024 28.1723 42.8674 28.1297C42.9556 28.1083 42.9428 27.9945 42.8774 27.9547C42.7408 27.8693 42.5558 27.8451 42.4079 27.7783C42.2514 27.7086 42.0949 27.6431 41.9455 27.5578C41.6468 27.3856 41.3765 27.1495 41.1545 26.882C40.9226 26.606 40.7405 26.2888 40.6096 25.9502C40.4745 25.6002 40.4147 25.226 40.2739 24.8803C40.254 24.8291 40.1772 24.8277 40.1644 24.886C40.0847 25.2858 40.1957 25.6969 40.3351 26.0725C40.4759 26.4495 40.6737 26.8109 40.9297 27.1224ZM41.4561 30.9551C42.8205 31.2197 44.2588 30.9935 45.5078 30.3917C45.6501 30.322 45.5648 30.0944 45.4182 30.1598C44.199 30.7061 42.8389 30.8526 41.5287 30.5909C40.9212 30.4685 40.3351 30.2523 39.7888 29.9578C39.2595 29.6704 38.7801 29.3019 38.2608 29.0018C38.2125 28.9733 38.1641 29.0331 38.1897 29.0786C38.8484 30.1484 40.2739 30.7246 41.4561 30.9551ZM48.43 31.453C48.531 31.3292 48.3503 31.1969 48.2422 31.3008C47.3573 32.1515 46.2306 32.7576 45.0498 33.0748C44.374 33.2569 43.6783 33.3579 42.9798 33.3864C42.2813 33.4148 41.5827 33.3906 40.8842 33.4333C40.7917 33.439 40.7889 33.5642 40.87 33.5898C42.2471 34.0479 43.8761 33.9199 45.2489 33.5002C46.4809 33.1203 47.6063 32.4545 48.43 31.453ZM58.6574 31.5469C58.5692 31.0077 58.4256 30.4813 58.2178 29.9763C57.8053 28.9705 57.1907 28.0913 56.3698 27.3814C56.2147 27.2476 56.0085 27.471 56.1536 27.6147C56.8677 28.3303 57.4525 29.2066 57.8209 30.147C58.0002 30.6051 58.141 31.0831 58.2235 31.5668C58.3046 32.0434 58.279 32.5783 58.4497 33.0321C58.4739 33.0962 58.5692 33.1118 58.602 33.0449C58.8139 32.5997 58.7343 32.0192 58.6574 31.5469ZM54.1988 29.3247C54.1448 29.2621 54.0367 29.3403 54.0665 29.4129C54.4108 30.2779 54.7366 31.15 54.7992 32.0889C54.8291 32.5527 54.8077 33.0165 54.7252 33.4746C54.6512 33.9071 54.4677 34.3467 54.462 34.7863C54.4592 34.8731 54.5687 34.8944 54.6228 34.8418C54.95 34.5145 55.0638 33.9611 55.1364 33.5173C55.2175 33.025 55.2402 32.5171 55.2018 32.0192C55.125 31.0546 54.8476 30.0673 54.1988 29.3247ZM51.4048 30.8996C51.2611 31.1699 51.1999 31.4743 51.1074 31.7674C51.0107 32.0804 50.8869 32.3834 50.7418 32.6779C50.4587 33.2583 50.0874 33.7904 49.6577 34.2727C49.2324 34.7521 48.7401 35.1675 48.1981 35.509C47.9278 35.6783 47.6532 35.8291 47.3658 35.9699C47.1467 36.0766 46.7783 36.2203 46.7114 36.4778C46.6986 36.5276 46.7228 36.5874 46.7626 36.6187C46.9917 36.7979 47.4185 36.6286 47.6546 36.5233C47.9705 36.3811 48.2778 36.2132 48.5637 36.0183C49.1228 35.637 49.6293 35.1718 50.0632 34.6511C50.4943 34.1333 50.8456 33.5457 51.1145 32.9283C51.3663 32.3464 51.6879 31.5654 51.5527 30.9238C51.5356 30.8526 51.4432 30.8284 51.4048 30.8996ZM54.8006 23.4207C54.7281 22.853 54.5673 22.2754 54.287 21.7377C54.1448 21.4716 53.9755 21.2156 53.7706 20.9851C53.5643 20.7546 53.3083 20.5327 52.9754 20.4089C52.8075 20.3506 52.688 20.4971 52.6624 20.655C52.6353 20.8158 52.6553 20.9808 52.7492 21.0178C53.156 21.1843 53.553 21.6054 53.8773 22.0208C54.2017 22.4504 54.4592 22.937 54.6157 23.4619C54.6384 23.5373 54.8134 23.5018 54.8006 23.4207Z" fill="#F9AABB"/>
<path d="M68.1864 52.0132C68.3699 53.6009 67.0013 54.7475 65.7935 55.5343C65.1832 55.9312 64.5401 54.9695 65.159 54.611C66.3014 53.9466 67.145 53.1357 67.6984 51.9222C67.8066 51.6817 68.158 51.7671 68.1864 52.0132ZM66.2687 57.341C65.1135 57.4193 64.018 57.4847 62.9766 56.8872C62.3194 56.5131 61.756 57.6099 62.4403 57.9314C63.688 58.5176 65.3767 58.6527 66.3526 57.5061C66.4081 57.4421 66.354 57.3354 66.2687 57.341ZM59.6434 57.765C59.5381 57.6768 59.3603 57.7735 59.383 57.9115C59.5395 58.8747 59.3261 59.8108 58.804 60.6203C58.3929 61.2548 59.4684 61.7698 59.8696 61.131C60.5539 60.0384 60.7089 58.6428 59.6434 57.765ZM71.8355 54.7931C70.6561 54.3549 69.2363 55.1985 68.5179 56.1474C68.1238 56.6681 68.892 57.3496 69.2804 56.8232C69.8466 56.0535 70.8454 55.2654 71.79 55.0563C71.9067 55.0292 71.9792 54.8471 71.8355 54.7931ZM48.7544 53.4899C48.3162 53.3647 47.9349 53.5098 47.5024 53.581C46.9945 53.6649 46.4895 53.6322 45.9873 53.5298C45.3997 53.4117 45.2361 54.3108 45.8166 54.4431C46.6929 54.6437 48.4684 54.7219 48.8468 53.6621C48.8753 53.5824 48.8369 53.5113 48.7544 53.4899ZM46.9689 52.6605C47.1681 52.3177 47.2677 51.9037 47.4512 51.5437C47.6589 51.134 47.8581 50.7556 48.2024 50.4454C48.366 50.2961 48.1995 50.0585 48.0032 50.1638C47.1795 50.6076 46.158 51.3303 46.0926 52.3703C46.0599 52.891 46.6929 53.1414 46.9689 52.6605ZM44.8136 56.6838C44.0027 56.587 43.0381 55.6851 42.8632 54.8855C42.7266 54.2653 41.7407 54.5683 41.9114 55.1971C42.2671 56.4988 43.4962 57.1703 44.7908 57.0693C45.0071 57.0551 45.0398 56.7108 44.8136 56.6838ZM47.8311 57.893C47.5465 57.7351 47.3402 57.3524 47.1866 57.0764C47.0258 56.7862 46.8295 56.459 46.7214 56.1432C46.6275 55.87 46.2235 55.9227 46.1722 56.1944C46.0712 56.7407 46.057 57.1874 46.2946 57.7138C46.5194 58.2131 46.8765 58.657 47.3431 58.9387C47.9748 59.32 48.4826 58.2572 47.8311 57.893ZM54.8846 60.8152C54.1875 60.6018 53.9428 61.8068 54.6897 61.9618C55.0923 62.0443 55.4821 62.0799 55.8691 62.2407C56.2404 62.3972 56.5548 62.6447 56.882 62.8766C57.0428 62.9904 57.3316 62.8481 57.2277 62.6333C56.7596 61.6417 55.9117 61.1296 54.8846 60.8152ZM57.4923 57.8461C57.3429 58.4706 56.8493 59.0283 56.2148 59.1848C55.6244 59.3313 54.9187 59.1791 54.4023 58.8491C54.105 59.3214 53.6028 59.6813 53.0992 59.8876C52.5728 60.0996 51.7917 60.2034 51.3336 59.7837C50.8585 59.3484 50.9367 58.556 51.1117 57.9542C50.3904 58.0211 49.6634 57.6811 49.3149 57.0167C48.9607 56.3409 49.0005 55.3621 49.7531 54.9908C49.8228 54.9567 49.874 55.0691 49.8142 55.1089C49.5567 55.2839 49.4572 55.7164 49.4259 56.0123C49.3931 56.3366 49.4685 56.6738 49.635 56.9512C49.9793 57.5274 50.6721 57.7693 51.3109 57.6242C51.4318 57.5985 51.493 57.7422 51.4574 57.8347C51.2853 58.3056 51.1202 59.0568 51.4517 59.4921C51.7917 59.936 52.5585 59.8065 53.001 59.6287C53.4847 59.4352 53.9912 59.0781 54.2401 58.6072C54.28 58.5304 54.3739 58.5076 54.445 58.5603C55.411 59.283 57.0143 59.1208 57.37 57.8219C57.3899 57.7493 57.5122 57.7664 57.4923 57.8461Z" fill="#DD7B4A"/>
<path d="M76.7425 22.3594C70.9281 22.3594 69.6818 23.6056 69.6818 29.4243C69.6818 23.6056 68.4356 22.3594 62.6212 22.3594C68.4356 22.3594 69.6818 21.1117 69.6818 15.2931C69.6804 21.1117 70.9267 22.3594 76.7425 22.3594ZM24.0886 29.7799C24.0886 33.6553 23.2592 34.4861 19.3867 34.4861C23.2592 34.4861 24.0886 35.3155 24.0886 39.1908C24.0886 35.3155 24.918 34.4861 28.7905 34.4861C24.918 34.4861 24.0886 33.6553 24.0886 29.7799ZM50.7705 37.5135C50.7705 40.5096 50.1303 41.1512 47.137 41.1512C50.1303 41.1512 50.7705 41.7914 50.7705 44.7875C50.7705 41.7914 51.4107 41.1512 54.4054 41.1512C51.4107 41.1526 50.7705 40.5096 50.7705 37.5135ZM81.9693 71.7952C81.9693 74.7899 81.3291 75.4315 78.3358 75.4315C81.3291 75.4315 81.9693 76.0731 81.9693 79.0678C81.9693 76.0731 82.6095 75.4315 85.6042 75.4315C82.6123 75.4329 81.9693 74.7899 81.9693 71.7952ZM34.4498 14.2431C34.4498 17.2378 33.8096 17.8794 30.8163 17.8794C33.8096 17.8794 34.4498 18.5211 34.4498 21.5157C34.4498 18.5211 35.0914 17.8794 38.0847 17.8794C35.0928 17.8794 34.4498 17.2378 34.4498 14.2431Z" fill="#FAEFD6"/>
</g>
<defs>
<clipPath id="clip0_240_6445">
<rect width="105.982" height="105.982" fill="white" transform="translate(0 -3.99103)"/>
</clipPath>
</defs>
</svg>
