<svg width="1920" height="262" viewBox="0 0 1920 262" fill="none" xmlns="http://www.w3.org/2000/svg">
<path fill-rule="evenodd" clip-rule="evenodd" d="M-262 81.9653L-227.886 99.9688C-194.281 117.972 -126.053 153.979 -58.3333 129.975C9.3858 105.97 77.6141 21.9537 145.333 3.95024C213.052 -14.0532 281.281 33.956 314.886 57.9607L349 81.9653V262H314.886C281.281 262 213.052 262 145.333 262C77.6141 262 9.3858 262 -58.3333 262C-126.053 262 -194.281 262 -227.886 262H-262V81.9653Z" fill="#F6F6E9"/>
<path fill-rule="evenodd" clip-rule="evenodd" d="M349 81.9653L383.114 99.9688C416.719 117.972 484.947 153.979 552.667 129.975C620.386 105.97 688.614 21.9537 756.333 3.95024C824.052 -14.0532 892.281 33.956 925.886 57.9607L960 81.9653V262H925.886C892.281 262 824.052 262 756.333 262C688.614 262 620.386 262 552.667 262C484.947 262 416.719 262 383.114 262H349V81.9653Z" fill="#F6F6E9"/>
<path fill-rule="evenodd" clip-rule="evenodd" d="M960 81.9653L994.114 99.9688C1027.72 117.972 1095.95 153.979 1163.67 129.975C1231.39 105.97 1299.61 21.9537 1367.33 3.95024C1435.05 -14.0532 1503.28 33.956 1536.89 57.9607L1571 81.9653V262H1536.89C1503.28 262 1435.05 262 1367.33 262C1299.61 262 1231.39 262 1163.67 262C1095.95 262 1027.72 262 994.114 262H960V81.9653Z" fill="#F6F6E9"/>
<path fill-rule="evenodd" clip-rule="evenodd" d="M1571 81.9653L1605.11 99.9688C1638.72 117.972 1706.95 153.979 1774.67 129.975C1842.39 105.97 1910.61 21.9537 1978.33 3.95024C2046.05 -14.0532 2114.28 33.956 2147.89 57.9607L2182 81.9653V262H2147.89C2114.28 262 2046.05 262 1978.33 262C1910.61 262 1842.39 262 1774.67 262C1706.95 262 1638.72 262 1605.11 262H1571V81.9653Z" fill="#F6F6E9"/>
</svg>
